# xmcd
#
# Track frame offsets:
#	150
#	15528
#	30877
#	46120
#	64461
#	79095
#	95905
#	113129
#	129585
#	142073
#
# Disc length: 2075 seconds
#
# Revision: 1
# Processed by: cddbd v1.5.2PL0 Copyright (c) Steve Scherf et al.
# Submitted via: audiograbber 1.83.01
#
DISCID=8308190a
DTITLE=Angela Harris - A Woman Like Me
DYEAR=1900
DGENRE=Country
TTITLE0=A Woman Like Me
TTITLE1=Swamp Water
TTITLE2=Home
TTITLE3=I Want Them Gone
TTITLE4=Rocks and Stones
TTITLE5=Should Have Known
TTITLE6=Choose
TTITLE7=Still
TTITLE8=Just You And Me
TTITLE9=The Way It Used To Be
EXTD=
EXTT0=
EXTT1=
EXTT2=
EXTT3=
EXTT4=
EXTT5=
EXTT6=
EXTT7=
EXTT8=
EXTT9=
PLAYORDER=
